<?xml version="1.0" encoding="UTF-8" standalone="no"?><!DOCTYPE svg PUBLIC "-//W3C//DTD SVG 1.1//EN" "http://www.w3.org/Graphics/SVG/1.1/DTD/svg11.dtd"><svg width="100%" height="100%" viewBox="0 0 1080 1080" version="1.1" xmlns="http://www.w3.org/2000/svg" xmlns:xlink="http://www.w3.org/1999/xlink" xml:space="preserve" xmlns:serif="http://www.serif.com/" style="fill-rule:evenodd;clip-rule:evenodd;stroke-linejoin:round;stroke-miterlimit:2;"><path d="M900,90l-720,0c-49.5,0 -90,40.5 -90,90l0,540c0,49.373 40.627,90 90,90l180,0l180,180l180,-180l180,0c49.95,0 90,-40.05 90,-90l0,-540c0,-49.373 -40.627,-90 -90,-90m-429.3,540l-157.5,-157.5l63.45,-63.9l94.05,94.05l233.1,-232.65l63.45,63.45l-296.55,296.55Z" style="fill-rule:nonzero;"/><clipPath id="_clip1"><path d="M900,90l-720,0c-49.5,0 -90,40.5 -90,90l0,540c0,49.373 40.627,90 90,90l180,0l180,180l180,-180l180,0c49.95,0 90,-40.05 90,-90l0,-540c0,-49.373 -40.627,-90 -90,-90m-429.3,540l-157.5,-157.5l63.45,-63.9l94.05,94.05l233.1,-232.65l63.45,63.45l-296.55,296.55Z" clip-rule="nonzero"/></clipPath><g clip-path="url(#_clip1)"><rect x="90" y="90" width="900" height="900" style="fill:url(#_Linear2);"/></g><defs><linearGradient id="_Linear2" x1="0" y1="0" x2="1" y2="0" gradientUnits="userSpaceOnUse" gradientTransform="matrix(900,0,0,937.151,90,540)"><stop offset="0" style="stop-color:#00c9ff;stop-opacity:1"/><stop offset="1" style="stop-color:#92fe9d;stop-opacity:1"/></linearGradient></defs></svg>